<?xml version="1.0" encoding="UTF-8"?>
<svg id="_图层_1" xmlns="http://www.w3.org/2000/svg" version="1.1" viewBox="0 0 1920 1080">
  <!-- Generator: Adobe Illustrator 30.1.0, SVG Export Plug-In . SVG Version: 2.1.1 Build 136)  -->
  <defs>
    <style>
      .st0 {
        fill: none;
        stroke: #000;
        stroke-miterlimit: 10;
      }

      .st1 {
        opacity: .24;
      }
    </style>
  </defs>
  <g class="st1">
    <rect class="st0" x="1420" y="-1335.61" width="1000" height="1000"/>
    <line class="st0" x1="1420" y1="-385.61" x2="2420" y2="-385.61"/>
    <line class="st0" x1="1420" y1="-435.61" x2="2420" y2="-435.61"/>
    <line class="st0" x1="1420" y1="-485.61" x2="2420" y2="-485.61"/>
    <line class="st0" x1="1420" y1="-535.61" x2="2420" y2="-535.61"/>
    <line class="st0" x1="1420" y1="-585.61" x2="2420" y2="-585.61"/>
    <line class="st0" x1="1420" y1="-635.61" x2="2420" y2="-635.61"/>
    <line class="st0" x1="1420" y1="-685.61" x2="2420" y2="-685.61"/>
    <line class="st0" x1="1420" y1="-735.61" x2="2420" y2="-735.61"/>
    <line class="st0" x1="1420" y1="-785.61" x2="2420" y2="-785.61"/>
    <line class="st0" x1="1420" y1="-835.61" x2="2420" y2="-835.61"/>
    <line class="st0" x1="1420" y1="-885.61" x2="2420" y2="-885.61"/>
    <line class="st0" x1="1420" y1="-935.61" x2="2420" y2="-935.61"/>
    <line class="st0" x1="1420" y1="-985.61" x2="2420" y2="-985.61"/>
    <line class="st0" x1="1420" y1="-1035.61" x2="2420" y2="-1035.61"/>
    <line class="st0" x1="1420" y1="-1085.61" x2="2420" y2="-1085.61"/>
    <line class="st0" x1="1420" y1="-1135.61" x2="2420" y2="-1135.61"/>
    <line class="st0" x1="1420" y1="-1185.61" x2="2420" y2="-1185.61"/>
    <line class="st0" x1="1420" y1="-1235.61" x2="2420" y2="-1235.61"/>
    <line class="st0" x1="1420" y1="-1285.61" x2="2420" y2="-1285.61"/>
    <line class="st0" x1="2370" y1="-1335.61" x2="2370" y2="-335.61"/>
    <line class="st0" x1="2320" y1="-1335.61" x2="2320" y2="-335.61"/>
    <line class="st0" x1="2270" y1="-1335.61" x2="2270" y2="-335.61"/>
    <line class="st0" x1="2220" y1="-1335.61" x2="2220" y2="-335.61"/>
    <line class="st0" x1="2170" y1="-1335.61" x2="2170" y2="-335.61"/>
    <line class="st0" x1="2120" y1="-1335.61" x2="2120" y2="-335.61"/>
    <line class="st0" x1="2070" y1="-1335.61" x2="2070" y2="-335.61"/>
    <line class="st0" x1="2020" y1="-1335.61" x2="2020" y2="-335.61"/>
    <line class="st0" x1="1970" y1="-1335.61" x2="1970" y2="-335.61"/>
    <line class="st0" x1="1920" y1="-1335.61" x2="1920" y2="-335.61"/>
    <line class="st0" x1="1870" y1="-1335.61" x2="1870" y2="-335.61"/>
    <line class="st0" x1="1820" y1="-1335.61" x2="1820" y2="-335.61"/>
    <line class="st0" x1="1770" y1="-1335.61" x2="1770" y2="-335.61"/>
    <line class="st0" x1="1720" y1="-1335.61" x2="1720" y2="-335.61"/>
    <line class="st0" x1="1670" y1="-1335.61" x2="1670" y2="-335.61"/>
    <line class="st0" x1="1620" y1="-1335.61" x2="1620" y2="-335.61"/>
    <line class="st0" x1="1570" y1="-1335.61" x2="1570" y2="-335.61"/>
    <line class="st0" x1="1520" y1="-1335.61" x2="1520" y2="-335.61"/>
    <line class="st0" x1="1470" y1="-1335.61" x2="1470" y2="-335.61"/>
  </g>
  <g>
    <rect x="794.4" y="615" width="25" height="25"/>
    <path d="M679.4,490h140v-50h-150v40c0,5.52-4.48,10-10,10h-30c-5.52,0-10-4.48-10-10v-40h-150v200h150v-40c0-5.52,4.48-10,10-10h30c5.52,0,10,4.48,10,10v40h100v-40c0-5.52,4.48-10,10-10h40v-50h-50v40c0,5.52-4.48,10-10,10h-80c-5.52,0-10-4.48-10-10v-80c0-5.52,4.48-10,10-10ZM619.4,580c0,5.52-4.48,10-10,10h-90v-100h90c5.52,0,10,4.48,10,10v80Z"/>
  </g>
  <g>
    <path d="M943.15,519.95c4.14,0,8,.66,11.57,1.98,3.57,1.32,6.66,3.3,9.27,5.94,2.61,2.64,4.65,5.94,6.12,9.9s2.21,8.61,2.21,13.95c0,4.68-.6,9-1.8,12.96-1.2,3.96-3.02,7.38-5.45,10.26-2.43,2.88-5.46,5.14-9.09,6.79-3.63,1.65-7.91,2.47-12.83,2.47h-27.72v-64.26h27.72ZM942.16,572.33c2.04,0,4.02-.33,5.94-.99,1.92-.66,3.63-1.75,5.13-3.29,1.5-1.53,2.7-3.52,3.6-5.98.9-2.46,1.35-5.46,1.35-9,0-3.24-.32-6.17-.95-8.78-.63-2.61-1.67-4.84-3.11-6.71-1.44-1.86-3.35-3.29-5.71-4.27-2.37-.99-5.29-1.49-8.78-1.49h-10.08v40.5h12.6Z"/>
    <path d="M980.23,551.99c.18-3,.93-5.49,2.25-7.47,1.32-1.98,3-3.57,5.04-4.77,2.04-1.2,4.33-2.05,6.88-2.57,2.55-.51,5.11-.76,7.7-.76,2.34,0,4.71.17,7.11.5,2.4.33,4.59.98,6.57,1.93,1.98.96,3.6,2.29,4.86,4,1.26,1.71,1.89,3.98,1.89,6.8v24.21c0,2.1.12,4.11.36,6.03.24,1.92.66,3.36,1.26,4.32h-12.96c-.24-.72-.44-1.45-.58-2.21-.15-.75-.26-1.51-.32-2.29-2.04,2.1-4.44,3.57-7.2,4.41s-5.58,1.26-8.46,1.26c-2.22,0-4.29-.27-6.21-.81-1.92-.54-3.6-1.38-5.04-2.52-1.44-1.14-2.56-2.58-3.38-4.32-.81-1.74-1.21-3.81-1.21-6.21,0-2.64.46-4.81,1.4-6.52.93-1.71,2.13-3.07,3.6-4.09,1.47-1.02,3.15-1.79,5.04-2.3,1.89-.51,3.79-.91,5.71-1.21,1.92-.3,3.81-.54,5.67-.72,1.86-.18,3.51-.45,4.95-.81,1.44-.36,2.58-.88,3.42-1.58.84-.69,1.23-1.69,1.17-3.02,0-1.38-.22-2.47-.67-3.28-.45-.81-1.05-1.44-1.8-1.89-.75-.45-1.62-.75-2.61-.9-.99-.15-2.06-.23-3.2-.23-2.52,0-4.5.54-5.94,1.62-1.44,1.08-2.28,2.88-2.52,5.4h-12.78ZM1009.75,561.44c-.54.48-1.21.85-2.02,1.12-.81.27-1.68.49-2.61.67-.93.18-1.91.33-2.92.45-1.02.12-2.04.27-3.06.45-.96.18-1.91.42-2.83.72-.93.3-1.74.71-2.43,1.21-.69.51-1.25,1.16-1.67,1.93-.42.78-.63,1.77-.63,2.97s.21,2.1.63,2.88c.42.78.99,1.39,1.71,1.84s1.56.76,2.52.95c.96.18,1.95.27,2.97.27,2.52,0,4.47-.42,5.85-1.26,1.38-.84,2.4-1.84,3.06-3.02.66-1.17,1.06-2.35,1.21-3.55.15-1.2.22-2.16.22-2.88v-4.77Z"/>
    <path d="M1044.58,537.68v6.48h.27c1.62-2.7,3.72-4.67,6.3-5.9,2.58-1.23,5.22-1.84,7.92-1.84,3.42,0,6.22.47,8.42,1.4,2.19.93,3.92,2.22,5.17,3.87,1.26,1.65,2.14,3.66,2.66,6.03.51,2.37.76,5,.76,7.88v28.62h-12.78v-26.28c0-3.84-.6-6.71-1.8-8.59s-3.33-2.83-6.39-2.83c-3.48,0-6,1.04-7.56,3.1-1.56,2.07-2.34,5.48-2.34,10.22v24.39h-12.78v-46.53h12.15Z"/>
    <path d="M1108.03,546.05c-2.04,0-3.75.47-5.13,1.4-1.38.93-2.51,2.13-3.38,3.6-.87,1.47-1.49,3.09-1.84,4.86-.36,1.77-.54,3.53-.54,5.26s.18,3.39.54,5.13c.36,1.74.94,3.32,1.75,4.73.81,1.41,1.9,2.56,3.29,3.46,1.38.9,3.06,1.35,5.04,1.35,3.06,0,5.41-.85,7.06-2.56,1.65-1.71,2.68-4.01,3.11-6.89h12.33c-.84,6.18-3.24,10.89-7.2,14.13-3.96,3.24-9.03,4.86-15.21,4.86-3.48,0-6.68-.58-9.58-1.75-2.91-1.17-5.39-2.8-7.42-4.91-2.04-2.1-3.63-4.6-4.77-7.51-1.14-2.91-1.71-6.1-1.71-9.58s.52-6.94,1.58-10.04c1.05-3.09,2.59-5.76,4.63-8.01,2.04-2.25,4.53-4,7.47-5.27,2.94-1.26,6.3-1.89,10.08-1.89,2.76,0,5.41.36,7.96,1.08,2.55.72,4.83,1.82,6.84,3.29,2.01,1.47,3.64,3.3,4.9,5.49,1.26,2.19,1.98,4.79,2.16,7.78h-12.51c-.84-5.34-3.99-8.01-9.45-8.01Z"/>
    <path d="M1151.14,573.05c1.92,1.86,4.68,2.79,8.28,2.79,2.58,0,4.8-.64,6.66-1.93,1.86-1.29,3-2.66,3.42-4.1h11.25c-1.8,5.58-4.56,9.57-8.28,11.97-3.72,2.4-8.22,3.6-13.5,3.6-3.66,0-6.96-.58-9.9-1.75-2.94-1.17-5.43-2.83-7.47-5-2.04-2.16-3.62-4.74-4.72-7.74-1.11-3-1.67-6.3-1.67-9.9s.57-6.72,1.71-9.72c1.14-3,2.76-5.59,4.86-7.78,2.1-2.19,4.6-3.92,7.52-5.18,2.91-1.26,6.13-1.89,9.67-1.89,3.96,0,7.41.76,10.35,2.29,2.94,1.53,5.36,3.59,7.25,6.17,1.89,2.58,3.25,5.52,4.09,8.82.84,3.3,1.14,6.75.9,10.35h-33.57c.18,4.14,1.23,7.14,3.15,9ZM1165.58,548.57c-1.53-1.68-3.86-2.52-6.98-2.52-2.04,0-3.73.35-5.08,1.04-1.35.69-2.43,1.55-3.24,2.57-.81,1.02-1.38,2.1-1.71,3.24-.33,1.14-.53,2.16-.58,3.06h20.79c-.6-3.24-1.67-5.7-3.19-7.38Z"/>
    <path d="M1231.69,537.09c-.84-1.35-1.89-2.53-3.15-3.55-1.26-1.02-2.69-1.81-4.28-2.38-1.59-.57-3.25-.86-5-.86-3.18,0-5.88.62-8.1,1.84-2.22,1.23-4.02,2.88-5.4,4.95-1.38,2.07-2.38,4.43-3.01,7.07-.63,2.64-.95,5.37-.95,8.19s.32,5.33.95,7.88c.63,2.55,1.63,4.85,3.01,6.89,1.38,2.04,3.18,3.68,5.4,4.9,2.22,1.23,4.92,1.85,8.1,1.85,4.32,0,7.7-1.32,10.12-3.96,2.43-2.64,3.92-6.12,4.46-10.44h13.68c-.36,4.02-1.29,7.65-2.79,10.89-1.5,3.24-3.48,6-5.94,8.28-2.46,2.28-5.34,4.02-8.64,5.22-3.3,1.2-6.93,1.8-10.89,1.8-4.92,0-9.35-.86-13.27-2.57-3.93-1.71-7.25-4.06-9.95-7.07-2.7-3-4.77-6.52-6.21-10.57-1.44-4.05-2.16-8.42-2.16-13.1s.72-9.25,2.16-13.36c1.44-4.11,3.51-7.7,6.21-10.76,2.7-3.06,6.01-5.46,9.95-7.2,3.93-1.74,8.35-2.61,13.27-2.61,3.54,0,6.88.51,10.04,1.53,3.15,1.02,5.97,2.51,8.46,4.46,2.49,1.95,4.54,4.36,6.17,7.25,1.62,2.88,2.64,6.18,3.06,9.9h-13.68c-.24-1.62-.78-3.1-1.62-4.46Z"/>
    <path d="M1268.95,519.95v64.26h-12.78v-64.26h12.78Z"/>
    <path d="M1279.39,530.48v-10.53h12.78v10.53h-12.78ZM1292.17,537.68v46.53h-12.78v-46.53h12.78Z"/>
    <path d="M1314.4,537.68v5.94h.18c1.56-2.52,3.54-4.35,5.94-5.49,2.4-1.14,5.04-1.71,7.92-1.71,3.66,0,6.81.69,9.45,2.07,2.64,1.38,4.83,3.21,6.57,5.49,1.74,2.28,3.03,4.94,3.87,7.97.84,3.03,1.26,6.2,1.26,9.5,0,3.12-.42,6.12-1.26,9-.84,2.88-2.12,5.43-3.83,7.65-1.71,2.22-3.84,3.99-6.39,5.31-2.55,1.32-5.53,1.98-8.96,1.98-2.88,0-5.53-.58-7.96-1.75-2.43-1.17-4.42-2.89-5.98-5.17h-.18v22.05h-12.78v-62.82h12.15ZM1331,574.58c1.41-.84,2.55-1.94,3.42-3.29.87-1.35,1.48-2.92,1.84-4.72.36-1.8.54-3.63.54-5.49s-.2-3.69-.58-5.49c-.39-1.8-1.04-3.4-1.93-4.81-.9-1.41-2.06-2.55-3.47-3.42-1.41-.87-3.14-1.3-5.17-1.3s-3.86.44-5.26,1.3c-1.41.87-2.55,2-3.42,3.38-.87,1.38-1.49,2.97-1.84,4.77-.36,1.8-.54,3.66-.54,5.58s.19,3.69.58,5.49c.39,1.8,1.02,3.38,1.89,4.72.87,1.35,2.03,2.45,3.46,3.29,1.44.84,3.18,1.26,5.22,1.26s3.85-.42,5.27-1.26Z"/>
    <path d="M1415.65,519.95l24.03,64.26h-14.67l-4.86-14.31h-24.03l-5.04,14.31h-14.22l24.3-64.26h14.49ZM1416.46,559.37l-8.1-23.58h-.18l-8.37,23.58h16.65Z"/>
    <path d="M1444.27,530.48v-10.53h12.78v10.53h-12.78ZM1457.05,537.68v46.53h-12.78v-46.53h12.78Z"/>
  </g>
</svg>