<?xml version="1.0" encoding="UTF-8"?>
<svg id="_图层_1" data-name="图层_1" xmlns="http://www.w3.org/2000/svg" version="1.1" viewBox="0 0 1920 1080">
  <!-- Generator: Adobe Illustrator 30.1.0, SVG Export Plug-In . SVG Version: 2.1.1 Build 136)  -->
  <defs>
    <style>
      .st0 {
        fill: none;
        stroke: #000;
        stroke-miterlimit: 10;
      }

      .st1 {
        opacity: .24;
      }
    </style>
  </defs>
  <g class="st1">
    <rect class="st0" x="1420" y="-1335.61" width="1000" height="1000"/>
    <line class="st0" x1="1420" y1="-385.61" x2="2420" y2="-385.61"/>
    <line class="st0" x1="1420" y1="-435.61" x2="2420" y2="-435.61"/>
    <line class="st0" x1="1420" y1="-485.61" x2="2420" y2="-485.61"/>
    <line class="st0" x1="1420" y1="-535.61" x2="2420" y2="-535.61"/>
    <line class="st0" x1="1420" y1="-585.61" x2="2420" y2="-585.61"/>
    <line class="st0" x1="1420" y1="-635.61" x2="2420" y2="-635.61"/>
    <line class="st0" x1="1420" y1="-685.61" x2="2420" y2="-685.61"/>
    <line class="st0" x1="1420" y1="-735.61" x2="2420" y2="-735.61"/>
    <line class="st0" x1="1420" y1="-785.61" x2="2420" y2="-785.61"/>
    <line class="st0" x1="1420" y1="-835.61" x2="2420" y2="-835.61"/>
    <line class="st0" x1="1420" y1="-885.61" x2="2420" y2="-885.61"/>
    <line class="st0" x1="1420" y1="-935.61" x2="2420" y2="-935.61"/>
    <line class="st0" x1="1420" y1="-985.61" x2="2420" y2="-985.61"/>
    <line class="st0" x1="1420" y1="-1035.61" x2="2420" y2="-1035.61"/>
    <line class="st0" x1="1420" y1="-1085.61" x2="2420" y2="-1085.61"/>
    <line class="st0" x1="1420" y1="-1135.61" x2="2420" y2="-1135.61"/>
    <line class="st0" x1="1420" y1="-1185.61" x2="2420" y2="-1185.61"/>
    <line class="st0" x1="1420" y1="-1235.61" x2="2420" y2="-1235.61"/>
    <line class="st0" x1="1420" y1="-1285.61" x2="2420" y2="-1285.61"/>
    <line class="st0" x1="2370" y1="-1335.61" x2="2370" y2="-335.61"/>
    <line class="st0" x1="2320" y1="-1335.61" x2="2320" y2="-335.61"/>
    <line class="st0" x1="2270" y1="-1335.61" x2="2270" y2="-335.61"/>
    <line class="st0" x1="2220" y1="-1335.61" x2="2220" y2="-335.61"/>
    <line class="st0" x1="2170" y1="-1335.61" x2="2170" y2="-335.61"/>
    <line class="st0" x1="2120" y1="-1335.61" x2="2120" y2="-335.61"/>
    <line class="st0" x1="2070" y1="-1335.61" x2="2070" y2="-335.61"/>
    <line class="st0" x1="2020" y1="-1335.61" x2="2020" y2="-335.61"/>
    <line class="st0" x1="1970" y1="-1335.61" x2="1970" y2="-335.61"/>
    <line class="st0" x1="1920" y1="-1335.61" x2="1920" y2="-335.61"/>
    <line class="st0" x1="1870" y1="-1335.61" x2="1870" y2="-335.61"/>
    <line class="st0" x1="1820" y1="-1335.61" x2="1820" y2="-335.61"/>
    <line class="st0" x1="1770" y1="-1335.61" x2="1770" y2="-335.61"/>
    <line class="st0" x1="1720" y1="-1335.61" x2="1720" y2="-335.61"/>
    <line class="st0" x1="1670" y1="-1335.61" x2="1670" y2="-335.61"/>
    <line class="st0" x1="1620" y1="-1335.61" x2="1620" y2="-335.61"/>
    <line class="st0" x1="1570" y1="-1335.61" x2="1570" y2="-335.61"/>
    <line class="st0" x1="1520" y1="-1335.61" x2="1520" y2="-335.61"/>
    <line class="st0" x1="1470" y1="-1335.61" x2="1470" y2="-335.61"/>
  </g>
  <g>
    <rect x="825.5" y="615" width="25" height="25"/>
    <path d="M710.5,490h140v-50h-150v40c0,5.52-4.48,10-10,10h-30c-5.52,0-10-4.48-10-10v-40h-150v200h150v-40c0-5.52,4.48-10,10-10h30c5.52,0,10,4.48,10,10v40h100v-40c0-5.52,4.48-10,10-10h40v-50h-50v40c0,5.52-4.48,10-10,10h-80c-5.52,0-10-4.48-10-10v-80c0-5.52,4.48-10,10-10ZM650.5,580c0,5.52-4.48,10-10,10h-90v-100h90c5.52,0,10,4.48,10,10v80Z"/>
  </g>
  <g>
    <path d="M972.98,524.07c4.25,0,8.2.68,11.87,2.03,3.66,1.35,6.83,3.39,9.51,6.09,2.68,2.71,4.77,6.09,6.28,10.16,1.51,4.06,2.26,8.83,2.26,14.31,0,4.8-.62,9.23-1.85,13.3-1.23,4.06-3.09,7.57-5.59,10.53s-5.6,5.28-9.33,6.97c-3.73,1.69-8.11,2.54-13.16,2.54h-28.44v-65.93h28.44ZM971.96,577.81c2.09,0,4.12-.34,6.09-1.02,1.97-.68,3.72-1.8,5.26-3.37,1.54-1.57,2.77-3.62,3.69-6.14.92-2.52,1.38-5.6,1.38-9.23,0-3.32-.32-6.33-.97-9s-1.71-4.97-3.19-6.88c-1.48-1.91-3.43-3.37-5.86-4.39-2.43-1.02-5.43-1.52-9-1.52h-10.34v41.55h12.93Z"/>
    <path d="M1010.1,556.94c.18-3.08.95-5.63,2.31-7.66,1.35-2.03,3.08-3.66,5.17-4.89,2.09-1.23,4.45-2.11,7.06-2.63,2.62-.52,5.25-.78,7.89-.78,2.4,0,4.83.17,7.29.51,2.46.34,4.71,1,6.74,1.98,2.03.99,3.69,2.36,4.99,4.11,1.29,1.75,1.94,4.08,1.94,6.97v24.84c0,2.16.12,4.22.37,6.19.25,1.97.68,3.45,1.29,4.43h-13.3c-.25-.74-.45-1.49-.6-2.26-.15-.77-.26-1.55-.32-2.35-2.09,2.16-4.56,3.66-7.39,4.52-2.83.86-5.73,1.29-8.68,1.29-2.28,0-4.4-.28-6.37-.83-1.97-.55-3.69-1.42-5.17-2.58-1.48-1.17-2.63-2.65-3.46-4.43-.83-1.79-1.25-3.91-1.25-6.37,0-2.71.48-4.94,1.43-6.69.95-1.75,2.18-3.15,3.69-4.2,1.51-1.05,3.23-1.83,5.17-2.35,1.94-.52,3.89-.94,5.86-1.25,1.97-.31,3.91-.55,5.82-.74,1.91-.18,3.6-.46,5.08-.83s2.65-.91,3.51-1.62c.86-.71,1.26-1.74,1.2-3.09,0-1.42-.23-2.54-.69-3.37-.46-.83-1.08-1.48-1.85-1.94-.77-.46-1.66-.77-2.68-.92-1.02-.15-2.11-.23-3.28-.23-2.59,0-4.62.55-6.09,1.66s-2.34,2.96-2.59,5.54h-13.11ZM1040.38,566.64c-.55.49-1.25.88-2.08,1.15-.83.28-1.72.51-2.68.69-.96.18-1.96.34-3,.46-1.05.12-2.09.28-3.14.46-.99.18-1.96.43-2.91.74-.96.31-1.79.72-2.49,1.25-.71.52-1.28,1.19-1.71,1.99-.43.8-.65,1.82-.65,3.05s.21,2.16.65,2.96c.43.8,1.02,1.43,1.75,1.89.74.46,1.6.78,2.59.97.98.18,2,.28,3.05.28,2.58,0,4.58-.43,6-1.29,1.42-.86,2.46-1.89,3.14-3.09.68-1.2,1.09-2.42,1.25-3.65.15-1.23.23-2.22.23-2.96v-4.89Z"/>
    <path d="M1075.2,542.26v6.65h.28c1.66-2.77,3.82-4.79,6.46-6.05,2.65-1.26,5.36-1.89,8.13-1.89,3.51,0,6.39.48,8.63,1.43,2.25.96,4.02,2.28,5.31,3.97,1.29,1.69,2.2,3.76,2.72,6.19.52,2.43.79,5.12.79,8.08v29.36h-13.11v-26.96c0-3.94-.62-6.88-1.85-8.82-1.23-1.94-3.42-2.91-6.56-2.91-3.57,0-6.16,1.06-7.76,3.19-1.6,2.12-2.4,5.62-2.4,10.48v25.02h-13.11v-47.74h12.47Z"/>
    <path d="M1139.37,550.85c-2.09,0-3.85.48-5.26,1.43-1.42.96-2.57,2.19-3.46,3.69-.89,1.51-1.52,3.17-1.89,4.99-.37,1.82-.55,3.62-.55,5.4s.18,3.48.55,5.26c.37,1.79.97,3.4,1.8,4.85.83,1.45,1.95,2.63,3.37,3.55,1.42.92,3.14,1.38,5.17,1.38,3.14,0,5.55-.88,7.25-2.63,1.69-1.75,2.75-4.11,3.19-7.06h12.65c-.86,6.34-3.32,11.17-7.39,14.5-4.06,3.32-9.27,4.99-15.61,4.99-3.57,0-6.85-.6-9.83-1.8-2.99-1.2-5.53-2.88-7.62-5.03-2.09-2.15-3.73-4.72-4.89-7.71-1.17-2.99-1.75-6.26-1.75-9.83s.54-7.12,1.62-10.3c1.08-3.17,2.66-5.91,4.75-8.22s4.65-4.11,7.66-5.4c3.02-1.29,6.46-1.94,10.34-1.94,2.83,0,5.55.37,8.17,1.11,2.62.74,4.95,1.86,7.02,3.37,2.06,1.51,3.74,3.39,5.03,5.63,1.29,2.25,2.03,4.91,2.22,7.99h-12.83c-.86-5.48-4.09-8.22-9.7-8.22Z"/>
    <path d="M1182.68,578.55c1.97,1.91,4.8,2.86,8.5,2.86,2.65,0,4.92-.66,6.83-1.99,1.91-1.32,3.08-2.72,3.51-4.2h11.54c-1.85,5.73-4.68,9.82-8.5,12.28-3.82,2.46-8.43,3.69-13.85,3.69-3.76,0-7.14-.6-10.16-1.8-3.02-1.2-5.57-2.91-7.67-5.12-2.09-2.22-3.71-4.86-4.85-7.94-1.14-3.08-1.71-6.46-1.71-10.16s.58-6.89,1.75-9.97c1.17-3.08,2.83-5.74,4.99-7.99,2.15-2.25,4.72-4.02,7.71-5.31,2.99-1.29,6.29-1.94,9.93-1.94,4.06,0,7.6.78,10.62,2.35,3.02,1.57,5.49,3.68,7.43,6.33,1.94,2.65,3.34,5.67,4.2,9.05.86,3.39,1.17,6.92.92,10.62h-34.44c.18,4.25,1.26,7.33,3.23,9.23ZM1197.5,553.43c-1.57-1.72-3.96-2.58-7.16-2.58-2.09,0-3.83.35-5.22,1.06-1.38.71-2.49,1.59-3.32,2.63-.83,1.05-1.42,2.16-1.75,3.32-.34,1.17-.54,2.22-.6,3.14h21.33c-.62-3.32-1.71-5.85-3.28-7.57Z"/>
    <path d="M1261.17,589.49c-3.14,1.32-6.31,1.99-9.51,1.99-5.05,0-9.59-.88-13.62-2.63-4.03-1.75-7.43-4.17-10.2-7.25-2.77-3.08-4.89-6.7-6.37-10.85-1.48-4.16-2.22-8.63-2.22-13.43s.74-9.5,2.22-13.71c1.48-4.22,3.6-7.9,6.37-11.03,2.77-3.14,6.17-5.6,10.2-7.39,4.03-1.78,8.57-2.68,13.62-2.68,3.38,0,6.66.51,9.83,1.52,3.17,1.02,6.03,2.51,8.59,4.48,2.55,1.97,4.66,4.4,6.33,7.29,1.66,2.89,2.68,6.22,3.05,9.97h-13.85c-.86-3.69-2.53-6.46-4.99-8.31-2.46-1.85-5.45-2.77-8.96-2.77-3.26,0-6.03.63-8.31,1.89-2.28,1.26-4.12,2.95-5.54,5.08-1.42,2.12-2.45,4.54-3.09,7.25-.65,2.71-.97,5.51-.97,8.4s.32,5.46.97,8.08c.65,2.62,1.68,4.97,3.09,7.06,1.42,2.09,3.26,3.77,5.54,5.03,2.28,1.26,5.05,1.89,8.31,1.89,4.8,0,8.51-1.21,11.13-3.65,2.62-2.43,4.14-5.96,4.57-10.57h-14.59v-10.8h27.7v35.64h-9.23l-1.48-7.48c-2.59,3.32-5.45,5.65-8.59,6.97Z"/>
    <path d="M1303.92,578.55c1.97,1.91,4.8,2.86,8.5,2.86,2.65,0,4.92-.66,6.83-1.99,1.91-1.32,3.08-2.72,3.51-4.2h11.54c-1.85,5.73-4.68,9.82-8.5,12.28-3.82,2.46-8.43,3.69-13.85,3.69-3.76,0-7.14-.6-10.16-1.8-3.02-1.2-5.57-2.91-7.67-5.12-2.09-2.22-3.71-4.86-4.85-7.94-1.14-3.08-1.71-6.46-1.71-10.16s.58-6.89,1.75-9.97c1.17-3.08,2.83-5.74,4.99-7.99,2.15-2.25,4.72-4.02,7.71-5.31,2.99-1.29,6.29-1.94,9.93-1.94,4.06,0,7.6.78,10.62,2.35,3.02,1.57,5.49,3.68,7.43,6.33,1.94,2.65,3.34,5.67,4.2,9.05.86,3.39,1.17,6.92.92,10.62h-34.44c.18,4.25,1.26,7.33,3.23,9.23ZM1318.74,553.43c-1.57-1.72-3.96-2.58-7.16-2.58-2.09,0-3.83.35-5.22,1.06-1.38.71-2.49,1.59-3.32,2.63-.83,1.05-1.42,2.16-1.75,3.32-.34,1.17-.54,2.22-.6,3.14h21.33c-.62-3.32-1.71-5.85-3.28-7.57Z"/>
    <path d="M1354.43,542.26v6.65h.28c1.66-2.77,3.82-4.79,6.46-6.05,2.65-1.26,5.36-1.89,8.13-1.89,3.51,0,6.39.48,8.63,1.43,2.25.96,4.02,2.28,5.31,3.97,1.29,1.69,2.2,3.76,2.72,6.19.52,2.43.79,5.12.79,8.08v29.36h-13.11v-26.96c0-3.94-.62-6.88-1.85-8.82-1.23-1.94-3.42-2.91-6.56-2.91-3.57,0-6.16,1.06-7.76,3.19-1.6,2.12-2.4,5.62-2.4,10.48v25.02h-13.11v-47.74h12.47Z"/>
  </g>
</svg>